<svg data-v-423bf9ae="" xmlns="http://www.w3.org/2000/svg" viewBox="0 0 200 90" class="iconLeft"><!----><!----><!----><g data-v-423bf9ae="" id="eb443d5a-63b5-4e45-ad2a-6d79457facac" fill="#012F41" transform="matrix(6.054490506946714,0,0,6.054490506946714,96.92367741562956,-1.9525743228430912)"><path d="M3.88 12.71L3.88 12.71Q3.08 12.71 2.39 12.43L2.39 12.43L2.39 12.43Q1.70 12.15 1.23 11.58L1.23 11.58L1.23 11.58Q0.76 11.01 0.63 10.20L0.63 10.20L1.47 9.93L1.47 9.93Q1.54 10.57 1.88 11.01L1.88 11.01L1.88 11.01Q2.23 11.46 2.75 11.68L2.75 11.68L2.75 11.68Q3.27 11.89 3.88 11.89L3.88 11.89L3.88 11.89Q4.81 11.89 5.37 11.43L5.37 11.43L5.37 11.43Q5.92 10.97 5.92 10.04L5.92 10.04L5.92 10.04Q5.92 9.45 5.62 9.03L5.62 9.03L5.62 9.03Q5.32 8.62 4.87 8.36L4.87 8.36L4.87 8.36Q4.43 8.09 3.68 7.76L3.68 7.76L3.68 7.76Q2.88 7.40 2.41 7.12L2.41 7.12L2.41 7.12Q1.93 6.83 1.60 6.36L1.60 6.36L1.60 6.36Q1.27 5.89 1.27 5.20L1.27 5.20L1.27 5.20Q1.27 4.50 1.61 3.96L1.61 3.96L1.61 3.96Q1.95 3.41 2.53 3.11L2.53 3.11L2.53 3.11Q3.10 2.80 3.79 2.80L3.79 2.80L3.79 2.80Q4.65 2.80 5.31 3.17L5.31 3.17L5.31 3.17Q5.97 3.53 6.41 4.26L6.41 4.26L5.76 4.72L5.76 4.72Q5.46 4.16 4.94 3.87L4.94 3.87L4.94 3.87Q4.42 3.59 3.79 3.59L3.79 3.59L3.79 3.59Q3.36 3.59 2.99 3.77L2.99 3.77L2.99 3.77Q2.61 3.96 2.38 4.30L2.38 4.30L2.38 4.30Q2.15 4.64 2.15 5.10L2.15 5.10L2.15 5.10Q2.15 5.58 2.42 5.94L2.42 5.94L2.42 5.94Q2.69 6.29 3.10 6.53L3.10 6.53L3.10 6.53Q3.50 6.77 4.20 7.10L4.20 7.10L4.20 7.10Q5.04 7.48 5.56 7.80L5.56 7.80L5.56 7.80Q6.08 8.13 6.44 8.66L6.44 8.66L6.44 8.66Q6.80 9.19 6.80 9.97L6.80 9.97L6.80 9.97Q6.80 10.79 6.42 11.42L6.42 11.42L6.42 11.42Q6.04 12.04 5.38 12.38L5.38 12.38L5.38 12.38Q4.72 12.71 3.88 12.71L3.88 12.71ZM9.04 12.61L9.04 2.95L9.97 2.95L9.97 8.77L15.47 2.95L16.63 2.95L13.04 6.71L16.90 12.61L15.80 12.61L12.43 7.36L9.97 9.91L9.97 12.61L9.04 12.61Z"></path></g><defs data-v-423bf9ae=""><linearGradient data-v-423bf9ae="" gradientTransform="rotate(25)" id="74036504-8f75-4526-85d1-0f5a750bfb9a" x1="0%" y1="0%" x2="100%" y2="0%"><stop data-v-423bf9ae="" offset="0%" style="stop-color: rgb(8, 199, 214); stop-opacity: 1;"></stop><stop data-v-423bf9ae="" offset="100%" style="stop-color: rgb(2, 2, 62); stop-opacity: 1;"></stop></linearGradient></defs><g data-v-423bf9ae="" id="800fe92f-9825-4778-93a5-9db578b61469" transform="matrix(1,0,0,1,-9.369003295898438,-5)" stroke="none" fill="url(#74036504-8f75-4526-85d1-0f5a750bfb9a)"><path d="M45.198 16.071L30.639 12.17l-8.953 6.915 14.647 3.927zM31.236 70.073l9.385 8.031V62.745l-9.385-7.618zM81.223 24.19l7.468-6.581-15.525-4.016-7.662 6.379zM31.236 86.318l9.385 8.049V79.958l-9.385-8.031zM24.515 49.539v-.114l-3.91-1.116.114 12.643 9.059 7.812V53.861l-5.289-4.331zM18.997 47.852l-7.521-2.144.087 7.354 7.671 6.617zM11.59 54.934l.176 14.524 7.811 6.739-.299-14.638zM20.869 77.321l8.909 7.689V70.608l-9.041-7.793zM43.239 95l14.62-5.491V74.703l-14.62 5.368zM77.015 65.319l13.284-4.868.027-14.699-13.311 4.384zM82.62 26.219v13.462l7.724-7.048.025-13.24zM77.015 82.321l13.258-4.982.026-14.532-13.284 4.876zM60.469 88.533l13.927-5.227V68.641l-13.927 5.114zM43.239 62.464v15.244l14.62-5.359V58.923l-2.266-.642zM61.989 60.101l-1.52-.432v11.722l13.927-5.106V50.997l-4.025 1.459zM27.555 50.399l14.621 10.878 11.115-3.585zM42.237 53.159V38.846L27.23 34.821l-.088 14.015zM36.719 24.638l-9.533 7.468 16.22 4.35-.027-.036 9.077-7.565zM62.306 20.657l-15.271-4.094-8.866 6.941 15.676 4.2zM60.557 43.757l-15.71-4.217v14.366l15.71 4.507zM89.764 44.68l-5.922-4.139-10.491 9.612zM73.175 48.292l8.109-7.399V27.397l-8.109 7.152zM34.883 24.146l-14.674-3.928-9.638 7.433 14.779 3.963zM70.459 33.679l-16.202-4.34-9.103 7.582 16.58 4.446zM63.703 19.489l7.644-6.37-14.973-3.866-7.872 6.159zM24.515 34.092L9.631 30.103l.334 13.813 14.55 4.165zM54.521 8.77L39.927 5l-7.812 6.027 14.551 3.893zM64.107 21.141l-8.461 7.047 16.14 4.322 8.102-7.143zM71.848 35.717l-8.672 7.645-.009.035v14.014l8.681-7.916z"></path></g><!----></svg>